<svg xmlns="http://www.w3.org/2000/svg" viewBox="0 0 77 85.33">
    <defs>
        <style>.cls-1{fill: #59a5bd;}</style>
    </defs>
    <g>
        <g>
            <path class="cls-1"
                  d="M67.1,35H55.64V0H15.37L0,15.37V29.61l2.52,2.52V53.19L0,55.71V70L15.37,85.33H62.48L77.85,70V45.78ZM74.57,68.6,61.13,82.05H16.72L3.27,68.6V57.07l2.52-2.52V30.78L3.27,28.26V16.72L16.72,3.27H52.37v31.6L48.94,38.3h16.8l8.83,8.84Z"/>
            <path class="cls-1"
                  d="M33.85,41.33V53.16l2.52,2.52H57.2v4l-5,5H27.22l-5-5V25.69l5-5h6.63v18H44.3l5-5V6.3H18L6.3,18v9l2.52,2.51V55.8L6.3,58.32v9L18,79H59.87L71.55,67.35v-19l-7.06-7.06Z"/>
        </g>
    </g>
</svg>
